<mxfile host="Electron" agent="Mozilla/5.0 (X11; Linux x86_64) AppleWebKit/537.36 (KHTML, like Gecko) draw.io/26.0.4 Chrome/128.0.6613.186 Electron/32.2.5 Safari/537.36" version="26.0.4">
  <diagram name="Page-1" id="3sltD8-UTv_B3VeULRe-">
    <mxGraphModel dx="1114" dy="1198" grid="1" gridSize="10" guides="1" tooltips="1" connect="1" arrows="1" fold="1" page="1" pageScale="1" pageWidth="850" pageHeight="1100" math="0" shadow="0">
      <root>
        <mxCell id="0" />
        <mxCell id="1" parent="0" />
        <mxCell id="cfKi9zkNHeyi4KkTyyHB-7" style="edgeStyle=orthogonalEdgeStyle;rounded=0;orthogonalLoop=1;jettySize=auto;html=1;" edge="1" parent="1" source="cfKi9zkNHeyi4KkTyyHB-1" target="cfKi9zkNHeyi4KkTyyHB-5">
          <mxGeometry relative="1" as="geometry" />
        </mxCell>
        <mxCell id="cfKi9zkNHeyi4KkTyyHB-1" value="Amazon Rekognition" style="sketch=0;points=[[0,0,0],[0.25,0,0],[0.5,0,0],[0.75,0,0],[1,0,0],[0,1,0],[0.25,1,0],[0.5,1,0],[0.75,1,0],[1,1,0],[0,0.25,0],[0,0.5,0],[0,0.75,0],[1,0.25,0],[1,0.5,0],[1,0.75,0]];outlineConnect=0;fontColor=#232F3E;fillColor=#01A88D;strokeColor=#ffffff;dashed=0;verticalLabelPosition=bottom;verticalAlign=top;align=center;html=1;fontSize=12;fontStyle=0;aspect=fixed;shape=mxgraph.aws4.resourceIcon;resIcon=mxgraph.aws4.rekognition_2;" vertex="1" parent="1">
          <mxGeometry x="241" y="472" width="78" height="78" as="geometry" />
        </mxCell>
        <mxCell id="cfKi9zkNHeyi4KkTyyHB-2" value="Optional Manual review in A2I" style="sketch=0;outlineConnect=0;fontColor=#232F3E;gradientColor=none;fillColor=#232F3D;strokeColor=none;dashed=0;verticalLabelPosition=bottom;verticalAlign=top;align=center;html=1;fontSize=12;fontStyle=0;aspect=fixed;pointerEvents=1;shape=mxgraph.aws4.magnifying_glass_2;" vertex="1" parent="1">
          <mxGeometry x="681" y="472" width="78" height="78" as="geometry" />
        </mxCell>
        <mxCell id="cfKi9zkNHeyi4KkTyyHB-4" style="edgeStyle=orthogonalEdgeStyle;rounded=0;orthogonalLoop=1;jettySize=auto;html=1;" edge="1" parent="1" source="cfKi9zkNHeyi4KkTyyHB-3" target="cfKi9zkNHeyi4KkTyyHB-1">
          <mxGeometry relative="1" as="geometry" />
        </mxCell>
        <mxCell id="cfKi9zkNHeyi4KkTyyHB-3" value="Image" style="sketch=0;outlineConnect=0;fontColor=#232F3E;gradientColor=none;fillColor=#000000;strokeColor=none;dashed=0;verticalLabelPosition=bottom;verticalAlign=top;align=center;html=1;fontSize=12;fontStyle=0;aspect=fixed;pointerEvents=1;shape=mxgraph.aws4.container_registry_image;" vertex="1" parent="1">
          <mxGeometry x="91" y="476" width="70" height="70" as="geometry" />
        </mxCell>
        <mxCell id="cfKi9zkNHeyi4KkTyyHB-8" style="edgeStyle=orthogonalEdgeStyle;rounded=0;orthogonalLoop=1;jettySize=auto;html=1;" edge="1" parent="1" source="cfKi9zkNHeyi4KkTyyHB-5" target="cfKi9zkNHeyi4KkTyyHB-2">
          <mxGeometry relative="1" as="geometry" />
        </mxCell>
        <mxCell id="cfKi9zkNHeyi4KkTyyHB-5" value="Confidence Level and Threshold" style="text;html=1;align=center;verticalAlign=middle;resizable=0;points=[];autosize=1;strokeColor=none;fillColor=none;" vertex="1" parent="1">
          <mxGeometry x="401" y="496" width="200" height="30" as="geometry" />
        </mxCell>
      </root>
    </mxGraphModel>
  </diagram>
</mxfile>
